<?xml version="1.0" standalone="no"?>
<!DOCTYPE svg PUBLIC "-//W3C//DTD SVG 20010904//EN"
 "http://www.w3.org/TR/2001/REC-SVG-20010904/DTD/svg10.dtd">
<svg version="1.0" xmlns="http://www.w3.org/2000/svg"
 width="250.000000pt" height="250.000000pt" viewBox="0 0 250.000000 250.000000"
 preserveAspectRatio="xMidYMid meet">

<g transform="translate(0.000000,250.000000) scale(0.100000,-0.100000)"
fill="#DB6A42" stroke="none">
<path d="M160 2365 l0 -95 35 0 35 0 0 95 0 95 -35 0 -35 0 0 -95z"/>
<path d="M1152 2447 c-6 -7 -13 -60 -14 -118 l-3 -104 -49 -5 c-32 -3 -53 -11
-60 -22 -9 -15 6 -34 99 -128 60 -60 117 -110 125 -110 8 0 65 50 125 110 93
94 108 113 99 128 -7 11 -28 19 -60 22 l-49 5 -3 104 c-1 58 -8 111 -14 118
-7 9 -38 13 -98 13 -60 0 -91 -4 -98 -13z m138 -167 l0 -111 30 -13 30 -12
-50 -49 -50 -49 -50 49 -50 49 30 12 30 13 0 104 c0 57 3 107 7 110 3 4 21 7
40 7 l33 0 0 -110z"/>
<path d="M2270 2365 l0 -95 35 0 35 0 0 95 0 95 -35 0 -35 0 0 -95z"/>
<path d="M320 2325 l0 -55 35 0 35 0 0 55 0 55 -35 0 -35 0 0 -55z"/>
<path d="M2110 2325 l0 -55 35 0 35 0 0 55 0 55 -35 0 -35 0 0 -55z"/>
<path d="M172 2208 c-8 -8 -12 -48 -12 -114 l0 -103 -51 -3 c-36 -2 -55 -8
-63 -20 -9 -15 6 -35 104 -133 63 -63 119 -115 125 -115 6 0 59 48 118 108
133 133 139 162 36 162 l-39 0 0 103 c0 67 -4 107 -12 115 -8 8 -46 12 -103
12 -57 0 -95 -4 -103 -12z m148 -173 c5 -105 6 -110 28 -113 12 -2 22 -7 22
-11 0 -4 -22 -28 -48 -54 l-48 -47 -49 50 c-27 27 -47 51 -44 52 2 2 13 8 24
14 18 10 20 23 23 118 l3 107 42 -3 42 -3 5 -110z"/>
<path d="M2122 2208 c-8 -8 -12 -48 -12 -115 l0 -103 -39 0 c-104 0 -97 -29
39 -165 129 -129 108 -131 253 21 89 92 98 104 88 123 -10 17 -21 21 -61 21
l-50 0 0 103 c0 67 -4 107 -12 115 -8 8 -46 12 -103 12 -57 0 -95 -4 -103 -12z
m150 -165 l3 -108 29 -14 29 -14 -52 -50 -52 -50 -50 49 c-27 26 -49 51 -49
55 0 4 10 9 23 11 21 3 22 7 25 116 l3 112 44 0 44 0 3 -107z"/>
<path d="M522 1818 c-9 -9 -12 -92 -12 -310 l0 -298 -163 0 c-113 0 -167 -4
-175 -12 -9 -9 -12 -93 -12 -315 l0 -303 -48 0 c-26 0 -53 -5 -60 -12 -8 -8
-12 -45 -12 -99 0 -110 7 -119 96 -119 l64 0 0 -40 0 -40 -68 0 c-40 0 -73 -5
-80 -12 -19 -19 -16 -183 4 -202 14 -14 136 -16 1194 -16 1058 0 1180 2 1194
16 20 19 23 183 4 202 -7 7 -40 12 -80 12 l-68 0 0 40 0 40 64 0 c89 0 96 9
96 119 0 54 -4 91 -12 99 -7 7 -34 12 -60 12 l-48 0 0 303 c0 222 -3 306 -12
315 -8 8 -62 12 -175 12 l-163 0 0 298 c0 218 -3 301 -12 310 -17 17 -1439 17
-1456 0z m258 -162 c0 -76 4 -107 14 -115 9 -8 48 -11 112 -9 l99 3 5 110 5
110 98 3 97 3 0 -276 0 -275 -312 2 -313 3 -3 260 c-1 143 0 265 3 272 3 9 32
13 100 13 l95 0 0 -104z m160 24 l0 -80 -40 0 -40 0 0 80 0 80 40 0 40 0 0
-80z m552 -32 l3 -113 99 -3 c64 -2 103 1 112 9 10 8 14 39 14 116 l0 104 98
-3 97 -3 0 -270 0 -270 -312 -3 -313 -2 0 275 0 275 100 0 99 0 3 -112z m148
32 l0 -80 -40 0 -40 0 0 80 0 80 40 0 40 0 0 -80z m-1052 -628 l3 -83 -43 3
-43 3 -3 69 c-4 91 -1 98 45 94 l38 -3 3 -83z m702 3 l0 -85 -40 0 -40 0 0 78
c0 43 3 82 7 85 3 4 21 7 40 7 l33 0 0 -85z m705 0 l0 -80 -42 -3 -43 -3 0 79
c0 43 3 82 7 86 4 4 23 6 43 4 l35 -3 0 -80z m-1565 -28 c0 -67 4 -107 12
-115 16 -16 190 -16 206 0 8 8 12 48 12 115 l0 103 100 0 100 0 0 -275 0 -275
-312 2 -313 3 -3 273 -2 272 100 0 100 0 0 -103z m700 4 c0 -129 2 -131 120
-131 118 0 120 2 120 131 l0 99 95 0 95 0 0 -275 0 -275 -310 0 -310 0 0 275
0 275 95 0 95 0 0 -99z m710 -4 c0 -67 4 -107 12 -115 16 -16 190 -16 206 0 8
8 12 48 12 115 l0 103 100 0 100 0 -2 -272 -3 -273 -310 0 -310 0 -3 273 -2
272 100 0 100 0 0 -103z m548 -559 l3 -38 -1140 0 -1141 0 0 33 c0 19 3 37 7
40 3 4 515 6 1137 5 l1131 -3 3 -37z m-2038 -158 l0 -40 -40 0 -40 0 0 40 0
40 40 0 40 0 0 -40z m788 3 l-3 -38 -352 -3 -353 -2 0 40 0 40 356 0 355 0 -3
-37z m152 -3 l0 -40 -40 0 -40 0 0 40 0 40 40 0 40 0 0 -40z m780 0 l0 -40
-352 2 -353 3 -3 38 -3 37 355 0 356 0 0 -40z m160 0 l0 -40 -40 0 -40 0 0 40
0 40 40 0 40 0 0 -40z m155 -155 l0 -40 -1135 0 -1135 0 -3 28 c-7 62 -96 57
1140 55 l1133 -3 0 -40z"/>
<path d="M980 1310 l0 -60 35 0 35 0 0 60 0 60 -35 0 -35 0 0 -60z"/>
<path d="M1100 1310 l0 -60 35 0 35 0 0 60 0 60 -35 0 -35 0 0 -60z"/>
<path d="M1680 1311 l0 -61 40 0 41 0 -3 58 -3 57 -37 3 -38 3 0 -60z"/>
<path d="M1800 1310 l0 -60 35 0 35 0 0 60 0 60 -35 0 -35 0 0 -60z"/>
<path d="M630 685 l0 -55 35 0 35 0 0 55 0 55 -35 0 -35 0 0 -55z"/>
<path d="M740 685 l0 -55 40 0 40 0 0 55 0 55 -40 0 -40 0 0 -55z"/>
<path d="M1330 685 l0 -55 35 0 35 0 0 55 0 55 -35 0 -35 0 0 -55z"/>
<path d="M1450 685 l0 -55 35 0 35 0 0 55 0 55 -35 0 -35 0 0 -55z"/>
<path d="M2030 685 l0 -55 40 0 40 0 0 55 0 55 -40 0 -40 0 0 -55z"/>
<path d="M2150 685 l0 -55 35 0 35 0 0 55 0 55 -35 0 -35 0 0 -55z"/>
</g>
</svg>
