<?xml version="1.0" standalone="no"?>
<!DOCTYPE svg PUBLIC "-//W3C//DTD SVG 20010904//EN"
 "http://www.w3.org/TR/2001/REC-SVG-20010904/DTD/svg10.dtd">
<svg version="1.0" xmlns="http://www.w3.org/2000/svg"
 width="248.000000pt" height="248.000000pt" viewBox="0 0 248.000000 248.000000"
 preserveAspectRatio="xMidYMid meet">

<g transform="translate(0.000000,248.000000) scale(0.100000,-0.100000)"
fill="#DB6A42" stroke="none">
<path d="M1060 2290 c0 -5 -22 -10 -50 -10 -27 0 -50 -4 -50 -10 0 -5 -13 -10
-30 -10 -16 0 -30 -4 -30 -10 0 -5 -13 -10 -30 -10 -16 0 -30 -4 -30 -10 0 -5
-9 -10 -20 -10 -11 0 -20 -4 -20 -10 0 -5 -13 -10 -28 -10 -16 0 -34 -8 -42
-20 -8 -11 -22 -20 -32 -20 -10 0 -18 -4 -18 -10 0 -5 -8 -10 -18 -10 -10 0
-24 -9 -32 -20 -8 -11 -20 -20 -27 -20 -17 0 -223 -206 -223 -223 0 -7 -9 -19
-20 -27 -11 -8 -20 -22 -20 -32 0 -10 -4 -18 -10 -18 -5 0 -10 -8 -10 -18 0
-10 -9 -24 -20 -32 -12 -8 -20 -26 -20 -42 0 -15 -4 -28 -10 -28 -5 0 -10 -9
-10 -20 0 -11 -4 -20 -10 -20 -5 0 -10 -13 -10 -30 0 -16 -4 -30 -10 -30 -5 0
-10 -13 -10 -30 0 -16 -4 -30 -10 -30 -5 0 -10 -22 -10 -50 0 -27 -4 -50 -10
-50 -6 0 -10 -63 -10 -170 0 -107 4 -170 10 -170 6 0 10 -22 10 -50 0 -27 5
-50 10 -50 6 0 10 -13 10 -30 0 -16 5 -30 10 -30 6 0 10 -13 10 -30 0 -16 5
-30 10 -30 6 0 10 -9 10 -20 0 -11 5 -20 10 -20 6 0 10 -9 10 -20 0 -11 5 -20
10 -20 6 0 10 -9 10 -20 0 -11 5 -20 10 -20 6 0 10 -8 10 -18 0 -10 9 -24 20
-32 11 -8 20 -21 20 -30 0 -9 9 -22 20 -30 11 -8 20 -20 20 -27 0 -17 166
-183 183 -183 7 0 19 -9 27 -20 8 -11 21 -20 30 -20 9 0 22 -9 30 -20 8 -11
22 -20 32 -20 10 0 18 -4 18 -10 0 -5 9 -10 20 -10 11 0 20 -4 20 -10 0 -5 9
-10 20 -10 11 0 20 -4 20 -10 0 -5 9 -10 20 -10 11 0 20 -4 20 -10 0 -5 14
-10 30 -10 17 0 30 -4 30 -10 0 -5 18 -10 40 -10 22 0 40 -4 40 -10 0 -5 23
-10 50 -10 28 0 50 -4 50 -10 0 -6 57 -10 150 -10 93 0 150 4 150 10 0 6 23
10 50 10 28 0 50 5 50 10 0 6 14 10 30 10 17 0 30 5 30 10 0 6 14 10 30 10 17
0 30 5 30 10 0 6 14 10 30 10 17 0 30 5 30 10 0 6 9 10 20 10 11 0 20 5 20 10
0 6 8 10 18 10 10 0 24 9 32 20 8 11 22 20 32 20 10 0 18 5 18 10 0 6 7 10 16
10 8 0 33 18 54 40 21 22 43 40 49 40 15 0 101 86 101 101 0 6 18 28 40 49 22
21 40 45 40 52 0 7 9 20 20 28 11 8 20 22 20 32 0 10 5 18 10 18 6 0 10 9 10
20 0 11 5 20 10 20 6 0 10 9 10 20 0 11 5 20 10 20 6 0 10 14 10 30 0 17 5 30
10 30 6 0 10 14 10 30 0 17 5 30 10 30 6 0 10 14 10 30 0 17 5 30 10 30 6 0
10 23 10 50 0 28 5 50 10 50 6 0 10 57 10 150 0 93 -4 150 -10 150 -5 0 -10
23 -10 50 0 28 -4 50 -10 50 -5 0 -10 18 -10 40 0 22 -4 40 -10 40 -5 0 -10
14 -10 30 0 17 -4 30 -10 30 -5 0 -10 9 -10 20 0 11 -4 20 -10 20 -5 0 -10 9
-10 20 0 11 -4 20 -10 20 -5 0 -10 9 -10 20 0 11 -4 20 -10 20 -5 0 -10 8 -10
18 0 10 -9 24 -20 32 -11 8 -20 21 -20 30 0 9 -9 22 -20 30 -11 8 -20 20 -20
27 0 17 -166 183 -183 183 -7 0 -19 9 -27 20 -8 11 -21 20 -30 20 -9 0 -22 9
-30 20 -8 11 -22 20 -32 20 -10 0 -18 5 -18 10 0 6 -9 10 -20 10 -11 0 -20 5
-20 10 0 6 -9 10 -20 10 -11 0 -20 5 -20 10 0 6 -9 10 -20 10 -11 0 -20 5 -20
10 0 6 -13 10 -30 10 -16 0 -30 5 -30 10 0 6 -13 10 -30 10 -16 0 -30 5 -30
10 0 6 -22 10 -50 10 -27 0 -50 5 -50 10 0 6 -63 10 -170 10 -107 0 -170 -4
-170 -10z m820 -380 c0 -5 7 -10 15 -10 9 0 31 -16 50 -35 l35 -34 0 -166 0
-165 -130 0 -130 0 0 -400 c0 -260 -3 -400 -10 -400 -5 0 -10 -9 -10 -20 0
-11 -4 -20 -10 -20 -5 0 -10 -7 -10 -15 0 -20 -45 -65 -65 -65 -8 0 -15 -4
-15 -10 0 -7 -170 -10 -490 -10 -320 0 -490 3 -490 10 0 6 -7 10 -15 10 -20 0
-85 65 -85 85 0 8 -4 15 -10 15 -6 0 -10 42 -10 106 0 85 3 109 17 122 12 12
18 13 21 4 2 -8 29 -12 83 -12 l79 0 0 440 c0 287 3 440 10 440 6 0 10 11 10
25 0 29 59 95 85 95 8 0 15 5 15 10 0 7 183 10 530 10 347 0 530 -3 530 -10z"/>
<path d="M793 1825 l-33 -34 0 -446 0 -445 300 0 300 0 0 -90 c0 -53 4 -90 10
-90 6 0 10 -7 10 -15 0 -26 66 -85 95 -85 14 0 25 -4 25 -10 0 -5 9 -10 20
-10 11 0 20 5 20 10 0 6 11 10 25 10 29 0 75 40 75 65 0 8 5 15 10 15 7 0 10
187 10 540 0 353 3 540 10 540 6 0 10 14 10 30 0 17 5 30 10 30 6 0 10 5 10
10 0 7 -152 10 -437 9 l-438 0 -32 -34z m427 -75 c0 -5 9 -10 20 -10 11 0 20
-4 20 -10 0 -5 9 -10 20 -10 11 0 20 -4 20 -10 0 -5 9 -10 20 -10 11 0 20 -4
20 -10 0 -5 7 -10 15 -10 9 0 27 -11 40 -25 23 -23 25 -31 25 -130 0 -63 -4
-105 -10 -105 -5 0 -10 -11 -10 -25 0 -26 -59 -95 -81 -95 -6 0 -24 -13 -39
-30 -15 -16 -35 -30 -44 -30 -9 0 -16 -4 -16 -10 0 -5 -9 -10 -20 -10 -11 0
-20 5 -20 10 0 6 -8 10 -18 10 -10 0 -24 9 -32 20 -8 11 -20 20 -27 20 -25 0
-103 88 -103 115 0 14 -4 25 -10 25 -6 0 -10 42 -10 105 0 99 2 107 25 130 13
14 31 25 40 25 8 0 15 5 15 10 0 6 9 10 20 10 11 0 20 5 20 10 0 6 9 10 20 10
11 0 20 5 20 10 0 6 9 10 20 10 11 0 20 5 20 10 0 6 9 10 20 10 11 0 20 -4 20
-10z m300 -620 l0 -30 -310 0 -310 0 0 30 0 30 310 0 310 0 0 -30z m0 -110 c0
-20 -7 -20 -310 -20 -303 0 -310 0 -310 20 0 20 7 20 310 20 303 0 310 0 310
-20z"/>
<path d="M1170 1680 c-8 -11 -22 -20 -32 -20 -10 0 -18 -4 -18 -10 0 -5 -12
-10 -26 -10 -46 0 -54 -19 -54 -130 l0 -101 45 -44 c24 -25 50 -45 58 -45 7 0
19 -9 27 -20 8 -11 21 -20 30 -20 9 0 22 9 30 20 8 11 20 20 28 20 18 0 82 66
82 85 0 8 5 15 10 15 6 0 10 40 10 100 0 93 -1 100 -20 100 -11 0 -20 5 -20
10 0 6 -9 10 -20 10 -11 0 -20 5 -20 10 0 6 -8 10 -18 10 -10 0 -24 9 -32 20
-8 11 -21 20 -30 20 -9 0 -22 -9 -30 -20z m130 -135 c0 -23 -106 -125 -130
-125 -22 0 -70 41 -70 60 0 6 7 18 15 27 14 14 18 13 34 -6 21 -25 51 -28 51
-6 0 9 10 27 23 40 25 27 77 34 77 10z"/>
<path d="M1753 1825 l-33 -34 0 -116 0 -115 110 0 110 0 0 110 c0 67 -4 110
-10 110 -5 0 -10 7 -10 15 0 9 -11 27 -25 40 -38 39 -100 34 -142 -10z"/>
<path d="M540 790 c0 -40 4 -70 10 -70 6 0 10 -7 10 -15 0 -26 66 -85 95 -85
14 0 25 -4 25 -10 0 -6 120 -10 340 -10 319 0 340 1 340 18 0 10 -9 24 -20 32
-12 8 -20 26 -20 42 0 15 -4 28 -10 28 -6 0 -10 30 -10 70 l0 70 -380 0 -380
0 0 -70z"/>
</g>
</svg>
