<?xml version="1.0" standalone="no"?>
<!DOCTYPE svg PUBLIC "-//W3C//DTD SVG 20010904//EN"
 "http://www.w3.org/TR/2001/REC-SVG-20010904/DTD/svg10.dtd">
<svg version="1.0" xmlns="http://www.w3.org/2000/svg"
 width="242.000000pt" height="242.000000pt" viewBox="0 0 242.000000 242.000000"
 preserveAspectRatio="xMidYMid meet">

<g transform="translate(0.000000,242.000000) scale(0.100000,-0.100000)"
fill="#DB6A42" stroke="none">
<path d="M1080 2259 c-37 -15 -78 -58 -89 -93 -5 -17 -13 -60 -16 -94 l-7 -64
-65 -29 c-36 -16 -72 -29 -80 -29 -8 0 -36 17 -62 39 -123 102 -176 95 -307
-41 -113 -116 -119 -171 -28 -282 24 -30 44 -60 44 -67 0 -6 -12 -42 -27 -79
l-26 -69 -51 -6 c-122 -14 -130 -17 -167 -54 -43 -43 -54 -95 -48 -230 6 -126
49 -170 178 -181 45 -4 83 -9 85 -11 8 -9 56 -136 56 -149 0 -8 -17 -34 -38
-59 -52 -62 -64 -86 -64 -135 -1 -57 18 -90 104 -172 80 -78 123 -98 181 -84
42 9 48 13 114 67 l53 42 57 -25 c32 -14 65 -29 73 -33 10 -5 19 -37 27 -91
12 -87 28 -118 77 -154 24 -19 42 -21 155 -21 124 0 128 1 164 28 70 53 88
129 41 166 -15 12 -38 21 -51 21 -24 0 -73 -40 -73 -60 0 -6 -31 -10 -80 -10
l-79 0 -5 33 c-3 17 -8 63 -11 102 -7 84 -19 99 -94 121 -31 9 -87 31 -124 50
-37 19 -79 34 -92 34 -14 0 -49 -21 -86 -52 -101 -87 -87 -85 -152 -20 l-57
58 65 78 c41 49 65 87 65 102 0 14 -15 55 -33 92 -19 37 -41 92 -51 124 -24
77 -37 87 -132 94 -133 9 -124 2 -124 94 0 92 -9 85 124 94 95 7 109 17 132
95 9 31 31 87 50 124 19 37 34 79 34 92 0 15 -23 52 -60 96 -33 39 -60 77 -60
83 0 15 92 106 107 106 6 0 43 -27 82 -60 46 -38 81 -60 97 -60 13 0 55 15 92
34 37 18 92 41 123 49 77 23 88 38 95 133 9 129 6 124 69 124 65 0 95 24 95
76 0 50 -37 74 -114 73 -33 0 -72 -5 -86 -10z"/>
<path d="M1530 2244 c-143 -81 -240 -249 -240 -416 0 -73 21 -171 47 -223 28
-53 104 -145 139 -168 l34 -22 0 -511 c0 -568 1 -576 65 -651 20 -23 60 -54
91 -69 49 -24 63 -26 124 -21 83 7 136 32 184 89 65 76 66 84 66 646 l0 505
68 66 c121 117 178 274 153 424 -25 149 -123 292 -242 353 -44 22 -55 24 -79
14 -44 -18 -50 -46 -50 -229 l0 -168 -37 -16 c-75 -31 -90 -30 -173 12 -12 7
-16 42 -20 190 -5 177 -6 183 -29 202 -31 25 -47 24 -101 -7z m10 -477 c38
-37 207 -100 251 -94 45 6 208 72 229 92 11 12 16 47 20 143 l5 127 23 -36
c29 -48 52 -124 52 -176 0 -109 -76 -242 -170 -294 -21 -12 -43 -32 -49 -46
-8 -16 -11 -190 -11 -559 0 -587 1 -577 -60 -609 -48 -25 -86 -19 -128 19
l-37 34 -5 564 c-3 310 -7 564 -8 565 -1 1 -27 18 -57 37 -63 41 -117 110
-141 180 -25 73 -16 185 22 261 l29 60 5 -122 c5 -114 7 -124 30 -146z"/>
<path d="M1040 1707 c-277 -94 -425 -399 -326 -672 49 -134 138 -234 267 -296
95 -46 179 -64 269 -55 140 13 199 54 174 123 -15 43 -46 53 -112 37 -81 -19
-143 -17 -214 7 -130 44 -214 130 -252 258 -41 141 9 299 127 395 45 37 126
76 157 76 29 0 80 48 80 76 0 34 -42 74 -77 74 -15 0 -57 -11 -93 -23z"/>
</g>
</svg>
